<svg xmlns="http://www.w3.org/2000/svg" xmlns:xlink="http://www.w3.org/1999/xlink" fill="none" version="1.1" width="30" height="30.000003814697266" viewBox="0 0 30 30.000003814697266"><defs><clipPath id="master_svg0_1_9233"><rect x="0" y="0" width="30" height="30.000003814697266" rx="0"/></clipPath></defs><g clip-path="url(#master_svg0_1_9233)"><g><path d="M15,3.7499847412109375C8.7868,3.7499847412109375,3.75,8.786784741210937,3.75,14.999984741210938C3.75,21.213284741210938,8.7868,26.249984741210938,15,26.249984741210938C21.2132,26.249984741210938,26.25,21.213284741210938,26.25,14.999984741210938C26.25,8.786784741210937,21.2132,3.7499847412109375,15,3.7499847412109375C15,3.7499847412109375,15,3.7499847412109375,15,3.7499847412109375ZM1.25,14.999984741210938C1.25,7.406074741210937,7.40609,1.2499847412109375,15,1.2499847412109375C22.5939,1.2499847412109375,28.75,7.406074741210937,28.75,14.999984741210938C28.75,22.59388474121094,22.5939,28.749984741210938,15,28.749984741210938C7.40609,28.749984741210938,1.25,22.59388474121094,1.25,14.999984741210938C1.25,14.999984741210938,1.25,14.999984741210938,1.25,14.999984741210938Z" fill-rule="evenodd" fill="#000000" fill-opacity="1"/></g></g></svg>